HIERARCHY
ROOT Hips
{
  OFFSET 276.459 109.103 -261.594
  CHANNELS 6 Xposition Yposition Zposition Zrotation Xrotation Yrotation
  JOINT ToSpine
  {
    OFFSET -2.69724 7.43032 -0.144315
    CHANNELS 3 Zrotation Xrotation Yrotation
    JOINT Spine
    {
      OFFSET -0.0310711 10.7595 1.96963
      CHANNELS 3 Zrotation Xrotation Yrotation
      JOINT Spine1
      {
        OFFSET 19.9056 3.91189 0.764692
        CHANNELS 3 Zrotation Xrotation Yrotation
        JOINT Neck
        {
          OFFSET 25.9749 7.03908 -0.130764
          CHANNELS 3 Zrotation Xrotation Yrotation
          JOINT Head
          {
            OFFSET 9.52751 0.295786 -0.907742
            CHANNELS 3 Zrotation Xrotation Yrotation
            End Site
            {
              OFFSET 16.4037 0.713936 2.7358
            }
          }
        }
        JOINT LeftShoulder
        {
          OFFSET 17.7449 4.33886 11.7777
          CHANNELS 3 Zrotation Xrotation Yrotation
          JOINT LeftArm
          {
            OFFSET 0.911315 1.27913 9.80584
            CHANNELS 3 Zrotation Xrotation Yrotation
            JOINT LeftForeArm
            {
              OFFSET 28.6126 1.18197 -3.53199
              CHANNELS 3 Zrotation Xrotation Yrotation
              JOINT LeftHand
              {
                OFFSET 27.5088 0.0218783 0.327423
                CHANNELS 3 Zrotation Xrotation Yrotation
                End Site
                {
                  OFFSET 18.6038 -0.000155887 0.382096
                }
              }
            }
          }
        }
        JOINT RightShoulder
        {
          OFFSET 17.1009 2.89543 -12.2328
          CHANNELS 3 Zrotation Xrotation Yrotation
          JOINT RightArm
          {
            OFFSET 1.4228 0.178766 -10.211
            CHANNELS 3 Zrotation Xrotation Yrotation
            JOINT RightForeArm
            {
              OFFSET 28.733 1.87905 2.64907
              CHANNELS 3 Zrotation Xrotation Yrotation
              JOINT RightHand
              {
                OFFSET 27.4588 0.290562 -0.101845
                CHANNELS 3 Zrotation Xrotation Yrotation
                End Site
                {
                  OFFSET 17.8396 -0.255518 -0.000602873
                }
              }
            }
          }
        }
      }
    }
  }
  JOINT LeftUpLeg
  {
    OFFSET -5.61296 -2.22332 -10.2353
    CHANNELS 3 Zrotation Xrotation Yrotation
    JOINT LeftLeg
    {
      OFFSET 2.56703 -44.7417 -7.93097
      CHANNELS 3 Zrotation Xrotation Yrotation
      JOINT LeftFoot
      {
        OFFSET 3.16933 -46.5642 -3.96578
        CHANNELS 3 Zrotation Xrotation Yrotation
        JOINT LeftToeBase
        {
          OFFSET 0.346054 -6.02161 12.8035
          CHANNELS 3 Zrotation Xrotation Yrotation
          End Site
          {
            OFFSET 0.134235 -1.35082 5.13018
          }
        }
      }
    }
  }
  JOINT RightUpLeg
  {
    OFFSET -5.7928 -1.72406 10.6446
    CHANNELS 3 Zrotation Xrotation Yrotation
    JOINT RightLeg
    {
      OFFSET -2.57161 -44.7178 -7.85259
      CHANNELS 3 Zrotation Xrotation Yrotation
      JOINT RightFoot
      {
        OFFSET -3.10148 -46.5936 -4.03391
        CHANNELS 3 Zrotation Xrotation Yrotation
        JOINT RightToeBase
        {
          OFFSET -0.0828122 -6.13587 12.8035
          CHANNELS 3 Zrotation Xrotation Yrotation
          End Site
          {
            OFFSET -0.131328 -1.35082 5.13018
          }
        }
      }
    }
  }
}
MOTION
Frames:	8
Frame Time:	0.0333333
125.712 104.627 -37.2867 -62.2855 -67.6543 -150.81 -70.1915 0 88.8779 98.7379 70.6504 -9.49335 4.48831 19.5995 6.64023 -130.45 23.7134 162.545 -149.04 63.7803 167.575 2.04843 -5.68796 -36.4679 -105.274 44.2961 -82.6116 -16.5399 53.6575 12.6132 -0.11989 0.0142583 4.31542 0.705423 -2.25658 45.5207 -62.2258 -34.1591 102.856 0.999963 1.85125 22.0545 15.3044 -0.489826 -4.16562 -44.606 -6.29394 78.3955 -2.75595 62.4948 9.92833 5.55584 11.1538 -0.518901 -21.9454 -45.7721 -4.71307 -56.6521 12.281 79.8429 0.359442 33.1089 -3.55486 -6.66451 -5.12617 1.04766 -0.432436 -4.47267 -3.90868 
124.005 104.339 -34.5322 -61.6236 -64.5643 -149.925 -70.1915 0 88.8779 100.817 71.159 -8.5899 2.96664 20.4031 4.90817 -130.577 23.6589 162.788 -148.173 63.4709 166.745 2.08997 -5.55828 -36.7144 -105.911 43.1134 -78.7724 -16.205 52.2759 12.2283 -1.24459 -0.0178879 5.15302 0.608764 -1.95318 45.3311 -62.8678 -34.0786 102.838 2.3482 1.10931 25.9881 15.2497 -0.313756 -2.80887 -40.8106 -5.69428 78.2092 -1.33564 55.6487 10.9217 7.76342 10.6622 -0.996778 -21.7718 -45.1642 -5.11513 -56.8528 13.9648 80.6268 0.223441 33.2854 -2.13407 -7.04774 -5.68354 1.08299 -0.809086 -6.20987 -3.93488 
121.881 104.381 -31.48 -63.5548 -63.0191 -152.585 -70.1915 0 88.8779 98.5448 71.9465 -6.43673 4.40669 21.1182 4.07342 -131.673 23.913 163.155 -148.343 63.5316 166.353 2.06569 -5.61421 -36.4546 -107.378 42.9512 -75.6153 -16.0722 52.8584 12.3927 -1.12868 -0.00898384 4.37442 0.669067 -2.18334 44.5474 -65.7426 -34.2948 102.891 4.93848 -3.70506 29.1675 13.3813 -0.388961 -3.84339 -41.0084 -6.35607 77.417 -0.613849 45.608 9.6327 6.50913 9.44523 -0.750583 -17.7072 -44.537 4.49681 -59.8788 14.1475 81.1356 -0.13804 32.397 -0.0564451 -7.29439 -5.93329 1.10288 -1.25273 -8.28423 -4.1216 
119.851 104.304 -28.4786 -64.4134 -61.3379 -154.027 -70.1915 0 88.8779 97.7021 72.2381 -5.43573 4.36073 21.392 3.34714 -130.84 23.59 163.522 -147.823 63.1633 166.875 2.07823 -5.6572 -37.019 -108.243 41.8018 -72.3145 -15.8571 52.8528 12.3957 -1.65575 -0.0164586 3.96621 0.591072 -1.91412 44.8378 -67.3165 -33.851 102.215 6.46749 -5.75148 32.2878 13.0866 -0.422715 -4.23524 -41.6871 -6.96673 75.1107 0.0584279 34.4104 10.729 6.17598 9.70947 -0.67883 -16.5702 -42.148 4.77066 -62.3476 14.2835 81.6702 -0.317452 31.5845 1.73486 -7.63056 -6.02372 1.12699 -1.69946 -10.2837 -4.10839 
117.782 104.152 -25.534 -65.1636 -59.8338 -155.091 -70.1915 0 88.8779 96.2157 72.4159 -3.75551 4.72399 21.5407 2.69704 -130.485 23.5287 164.368 -148.324 63.0924 168.012 2.23791 -4.90298 -36.4705 -109.378 42.1118 -69.6021 -15.5635 52.6004 12.3312 -2.44172 -0.0313634 3.93962 0.593883 -1.90493 45.3352 -67.4063 -32.6462 102.588 7.78418 -7.30036 34.3142 13.0759 -0.351769 -3.5888 -42.2435 -6.24341 80.0382 2.87297 23.929 2.07237 5.11754 9.27051 -0.475683 -14.1004 -37.1875 6.08497 -64.782 14.4885 82.2371 -0.280752 30.8532 3.06543 -7.69752 -5.74259 1.13039 -2.26118 -12.7601 -3.91874 
115.742 103.974 -22.6978 -66.2774 -58.0617 -156.365 -70.1915 0 88.8779 94.5125 72.7012 -1.65921 5.6826 21.8687 1.89757 -130.734 23.5683 165.64 -149.736 63.1216 169.716 2.38636 -4.32709 -36.6547 -110.252 41.88 -67.7915 -15.2461 52.334 12.2641 -3.52081 -0.0417723 3.56339 0.450475 -1.44541 45.1573 -68.0175 -32.5559 102.571 8.88186 -8.51024 35.6709 12.7028 -0.301144 -3.21103 -42.1901 -4.63659 89.4343 4.07653 16.3494 -10.7575 3.81316 7.44775 -0.285202 -11.8016 -31.4525 6.32088 -67.1091 14.8812 83.4047 -0.237719 30.4697 4.23285 -7.85532 -4.89153 1.1391 -2.94738 -15.7903 -4.21334 
113.8 103.661 -19.8125 -67.4254 -56.358 -157.751 -70.1915 0 88.8779 93.9867 72.9822 -0.702251 6.29613 22.3537 0.829318 -130.507 23.1438 165.171 -148.483 62.5149 168.146 2.45429 -4.08875 -36.8392 -109.552 41.6364 -67.2833 -14.0842 51.7381 10.377 -5.3149 -0.0541765 3.1854 0.323067 -1.02818 45.4885 -67.9482 -32.4173 102.407 8.61873 -8.0411 36.0353 13.0508 -0.272036 -2.86335 -42.1752 -4.56539 90.0971 3.18057 13.4683 -13.5761 3.06183 5.50016 -0.234065 -10.9201 -28.5324 5.17013 -68.83 14.9033 84.9349 0.137675 31.5666 5.03954 -7.71369 -4.21885 1.12493 -3.62821 -18.6562 -4.70133 
111.727 103.083 -16.7338 -68.5535 -54.9149 -159.108 -70.1915 0 88.8779 94.4179 73.3236 -0.909725 6.29723 22.9044 0.137677 -129.8 23.1176 165.394 -149.084 62.6709 169.361 2.4898 -3.899 -36.6498 -109.308 41.8236 -67.242 -13.4993 51.3105 9.50339 -5.32476 -0.0686957 3.51532 0.288864 -0.91641 45.7799 -67.7294 -32.5876 102.251 8.45156 -8.03751 35.1875 13.6598 -0.307277 -3.05385 -41.9856 -4.72489 90.3532 2.93171 14.9609 -13.3665 2.77378 5.52783 -0.184457 -10.0247 -27.4375 7.75876 -69.3759 14.4472 85.9964 1.24128 35.1361 4.48951 -7.02228 -3.57349 1.05929 -4.399 -22.0201 -4.10612 
